<?xml version="1.0" encoding="iso-8859-1" ?>
<svg version="1.1" xmlns="http://www.w3.org/2000/svg" xmlns:xlink="http://www.w3.org/1999/xlink" 
    viewBox="0 0 600 400" width="600" height="400">
    
    
    <!-- ITEM 0 -->
    <g>
        <defs>
            <clipPath id="clip-path-id-viewbox-item-0">
                <rect x="0.0" y="0.0" width="400.0" height="236.0"/>
            </clipPath>
        </defs>
        <g transform="translate(75.0 39.0) rotate(0.0 220.5 130.0) scale(1.1025 1.1016949152542372)">
            <g clip-path="url(#clip-path-id-viewbox-item-0)" transform="translate(-0.0 -0.0)">
                

<g>
	
		<linearGradient id="SVGID_1_-i0" gradientUnits="userSpaceOnUse" x1="397.9998" y1="-118" x2="3.3133" y2="-118" gradientTransform="matrix(1 0 0 -1 0 108)">
		<stop offset="0" style="stop-color:#B6B9B9"></stop>
		<stop offset="1" style="stop-color:#CECECE"></stop>
	</linearGradient>
	<path d="M384,236H16c-8.8,0-16-7.2-16-16l0,0c0-2.2,1.8-4,4-4h392c2.2,0,4,1.8,4,4l0,0C400,228.8,392.8,236,384,236z" style="fill:url(#SVGID_1_-i0);"></path>
	
		<linearGradient id="SVGID_2_-i0" gradientUnits="userSpaceOnUse" x1="61.8284" y1="135.8285" x2="343.2597" y2="-145.6028" gradientTransform="matrix(1 0 0 -1 0 108)">
		<stop offset="0" style="stop-color:#45A0FF"></stop>
		<stop offset="5.160000e-02" style="stop-color:#4B96FE"></stop>
		<stop offset="0.3713" style="stop-color:#6C60F9"></stop>
		<stop offset="0.6473" style="stop-color:#8538F6"></stop>
		<stop offset="0.8659" style="stop-color:#9420F4"></stop>
		<stop offset="1" style="stop-color:#9917F3"></stop>
	</linearGradient>
	<path d="M358,0H42c-4.4,0-8,3.6-8,8v208h332V8C366,3.6,362.4,0,358,0z" style="fill:url(#SVGID_2_-i0);"></path>
	
		<linearGradient id="SVGID_3_-i0" gradientUnits="userSpaceOnUse" x1="200" y1="88" x2="200" y2="-87.0784" gradientTransform="matrix(1 0 0 -1 0 108)">
		<stop offset="0" style="stop-color:#FFFFF0"></stop>
		<stop offset="0.6262" style="stop-color:#FDFDEF"></stop>
		<stop offset="0.8919" style="stop-color:#F6F6ED"></stop>
		<stop offset="1" style="stop-color:#F0F0EB"></stop>
	</linearGradient>
	<path d="M350,198c0,1.1-0.9,2-2,2H52c-1.1,0-2-0.9-2-2V18c0-1.1,0.9-2,2-2h296c1.1,0,2,0.9,2,2V198z" style="fill:url(#SVGID_3_-i0);"></path>
	
		<linearGradient id="SVGID_4_-i0" gradientUnits="userSpaceOnUse" x1="50" y1="80" x2="350" y2="80" gradientTransform="matrix(1 0 0 -1 0 108)">
		<stop offset="0" style="stop-color:#FFFFED"></stop>
		<stop offset="1" style="stop-color:#EBEBEB"></stop>
	</linearGradient>
	<path d="M350,40H50V18c0-1.1,0.9-2,2-2h296c1.1,0,2,0.9,2,2V40z" style="fill:url(#SVGID_4_-i0);"></path>
	<path d="M212,208c0,1.1-0.9,2-2,2h-20c-1.1,0-2-0.9-2-2l0,0c0-1.1,0.9-2,2-2h20C211.1,206,212,206.9,212,208L212,208z" style="opacity:0.15;enable-background:new    ;"></path>
	
		<linearGradient id="SVGID_5_-i0" gradientUnits="userSpaceOnUse" x1="148" y1="-112" x2="252" y2="-112" gradientTransform="matrix(1 0 0 -1 0 108)">
		<stop offset="0" style="stop-color:#302926;stop-opacity:0.1"></stop>
		<stop offset="0.2844" style="stop-color:#2C2523;stop-opacity:0.1427"></stop>
		<stop offset="0.579" style="stop-color:#1F1B19;stop-opacity:0.1868"></stop>
		<stop offset="0.8773" style="stop-color:#0B0909;stop-opacity:0.2316"></stop>
		<stop offset="1" style="stop-color:#000000;stop-opacity:0.25"></stop>
	</linearGradient>
	<path d="M243.1,224h-86.1c-3,0-5.8-1.7-7.1-4.4L148,216h104l-1.8,3.6C248.9,222.3,246.1,224,243.1,224z" style="fill:url(#SVGID_5_-i0);"></path>
	
		<linearGradient id="SVGID_6_-i0" gradientUnits="userSpaceOnUse" x1="166" y1="-60.25" x2="166" y2="-51.492" gradientTransform="matrix(1 0 0 -1 0 108)">
		<stop offset="0" style="stop-color:#8B8B8B"></stop>
		<stop offset="7.730000e-02" style="stop-color:#878787"></stop>
		<stop offset="0.6486" style="stop-color:#6F6F6F"></stop>
		<stop offset="1" style="stop-color:#666666"></stop>
	</linearGradient>
	<path d="M194,164c0,2.2-1.8,4-4,4h-48c-2.2,0-4-1.8-4-4l0,0c0-2.2,1.8-4,4-4h48C192.2,160,194,161.8,194,164L194,164z" style="fill:url(#SVGID_6_-i0);"></path>
	
		<linearGradient id="SVGID_7_-i0" gradientUnits="userSpaceOnUse" x1="234" y1="-60.25" x2="234" y2="-51.492" gradientTransform="matrix(1 0 0 -1 0 108)">
		<stop offset="0" style="stop-color:#8B8B8B"></stop>
		<stop offset="7.730000e-02" style="stop-color:#878787"></stop>
		<stop offset="0.6486" style="stop-color:#6F6F6F"></stop>
		<stop offset="1" style="stop-color:#666666"></stop>
	</linearGradient>
	<path d="M262,164c0,2.2-1.8,4-4,4h-48c-2.2,0-4-1.8-4-4l0,0c0-2.2,1.8-4,4-4h48C260.2,160,262,161.8,262,164L262,164z" style="fill:url(#SVGID_7_-i0);"></path>
	
		<linearGradient id="SVGID_8_-i0" gradientUnits="userSpaceOnUse" x1="66" y1="84.2503" x2="66" y2="75.9965" gradientTransform="matrix(1 0 0 -1 0 108)">
		<stop offset="0" style="stop-color:#FF7955"></stop>
		<stop offset="0.4556" style="stop-color:#FF705E"></stop>
		<stop offset="1" style="stop-color:#FF5F6F"></stop>
	</linearGradient>
	<circle cx="66" cy="28" r="4" style="fill:url(#SVGID_8_-i0);"></circle>
	
		<linearGradient id="SVGID_9_-i0" gradientUnits="userSpaceOnUse" x1="86" y1="84.6253" x2="86" y2="75.8717" gradientTransform="matrix(1 0 0 -1 0 108)">
		<stop offset="0" style="stop-color:#FFE552"></stop>
		<stop offset="1" style="stop-color:#FFAE39"></stop>
	</linearGradient>
	<circle cx="86" cy="28" r="4" style="fill:url(#SVGID_9_-i0);"></circle>
	
		<linearGradient id="SVGID_10_-i0" gradientUnits="userSpaceOnUse" x1="106" y1="84.1253" x2="106" y2="75.9981" gradientTransform="matrix(1 0 0 -1 0 108)">
		<stop offset="0" style="stop-color:#00E35E"></stop>
		<stop offset="1" style="stop-color:#00B248"></stop>
	</linearGradient>
	<circle cx="106" cy="28" r="4" style="fill:url(#SVGID_10_-i0);"></circle>
	<path d="M338,54h4v-2h-4v-4h-2v4h-42v2h42v132H64V54h237v-2H64v-4h-2v4h-4v2h4v132h-4v2h4v4h2v-4h272v4h2v-4h4v-2h-4   V54z" style="fill:#CCCECE;"></path>
</g>

            </g>
        </g>
    </g>
    
    <!-- ITEM 1 -->
    <g>
        <defs>
            <clipPath id="clip-path-id-viewbox-item-1">
                <rect x="0.0" y="0.0" width="282.0657031249996" height="38.736"/>
            </clipPath>
        </defs>
        <g transform="translate(10.0 322.0) rotate(0.0 294.5 18.0) scale(2.0881659608895453 0.9293680297397771)">
            <g clip-path="url(#clip-path-id-viewbox-item-1)" transform="translate(-0.0 -0.0)">
                <path fill="black" stroke="black" d="M15.45 69.77L15.45 69.77Q15.45 73.46 13.58 75.57Q11.72 77.68 8.40 77.68L8.40 77.68Q5.00 77.68 3.16 75.61Q1.31 73.53 1.31 69.75L1.31 69.75Q1.31 66.00 3.16 63.93Q5.01 61.87 8.42 61.87L8.42 61.87Q11.73 61.87 13.59 63.97Q15.45 66.07 15.45 69.77ZM3.20 69.77L3.20 69.77Q3.20 72.89 4.53 74.50Q5.86 76.12 8.40 76.12L8.40 76.12Q10.95 76.12 12.25 74.51Q13.56 72.90 13.56 69.77L13.56 69.77Q13.56 66.67 12.26 65.07Q10.96 63.47 8.42 63.47L8.42 63.47Q5.86 63.47 4.53 65.08Q3.20 66.69 3.20 69.77ZM28.55 71.70L28.55 71.70Q28.55 74.52 27.13 76.10Q25.71 77.68 23.21 77.68L23.21 77.68Q21.67 77.68 20.47 76.96Q19.27 76.23 18.62 74.88Q17.97 73.52 17.97 71.70L17.97 71.70Q17.97 68.89 19.38 67.32Q20.78 65.75 23.29 65.75L23.29 65.75Q25.70 65.75 27.13 67.35Q28.55 68.96 28.55 71.70ZM19.78 71.70L19.78 71.70Q19.78 73.91 20.66 75.07Q21.54 76.22 23.25 76.22L23.25 76.22Q24.97 76.22 25.85 75.07Q26.74 73.92 26.74 71.70L26.74 71.70Q26.74 69.51 25.85 68.37Q24.97 67.23 23.23 67.23L23.23 67.23Q21.52 67.23 20.65 68.35Q19.78 69.48 19.78 71.70ZM36.97 77.68L36.97 77.68Q35.84 77.68 34.91 77.27Q33.98 76.85 33.35 75.99L33.35 75.99L33.23 75.99Q33.35 77.00 33.35 77.90L33.35 77.90L33.35 82.64L31.61 82.64L31.61 65.96L33.03 65.96L33.27 67.53L33.35 67.53Q34.02 66.59 34.92 66.17Q35.81 65.75 36.97 65.75L36.97 65.75Q39.26 65.75 40.50 67.31Q41.75 68.88 41.75 71.70L41.75 71.70Q41.75 74.54 40.48 76.11Q39.22 77.68 36.97 77.68ZM36.71 67.23L36.71 67.23Q34.95 67.23 34.16 68.20Q33.37 69.18 33.35 71.31L33.35 71.31L33.35 71.70Q33.35 74.13 34.16 75.18Q34.97 76.22 36.76 76.22L36.76 76.22Q38.25 76.22 39.09 75.01Q39.94 73.80 39.94 71.68L39.94 71.68Q39.94 69.53 39.09 68.38Q38.25 67.23 36.71 67.23ZM52.22 74.33L52.22 74.33Q52.22 75.94 51.03 76.81Q49.83 77.68 47.66 77.68L47.66 77.68Q45.37 77.68 44.09 76.96L44.09 76.96L44.09 75.34Q44.92 75.76 45.87 76.00Q46.82 76.24 47.71 76.24L47.71 76.24Q49.07 76.24 49.81 75.81Q50.54 75.37 50.54 74.48L50.54 74.48Q50.54 73.80 49.96 73.33Q49.38 72.85 47.68 72.20L47.68 72.20Q46.08 71.60 45.40 71.15Q44.72 70.70 44.39 70.14Q44.06 69.57 44.06 68.78L44.06 68.78Q44.06 67.37 45.20 66.56Q46.35 65.75 48.35 65.75L48.35 65.75Q50.21 65.75 51.98 66.50L51.98 66.50L51.36 67.92Q49.63 67.21 48.22 67.21L48.22 67.21Q46.98 67.21 46.35 67.59Q45.72 67.98 45.72 68.67L45.72 68.67Q45.72 69.13 45.96 69.45Q46.19 69.78 46.72 70.07Q47.24 70.37 48.74 70.93L48.74 70.93Q50.78 71.67 51.50 72.43Q52.22 73.18 52.22 74.33ZM54.98 74.97L56.89 74.97L57.05 75.21Q56.77 76.26 56.26 77.66Q55.74 79.05 55.19 80.25L55.19 80.25L53.87 80.25Q54.16 79.15 54.50 77.55Q54.84 75.94 54.98 74.97L54.98 74.97ZM77.40 77.47L75.33 77.47L73.22 70.72Q73.02 70.10 72.47 67.90L72.47 67.90L72.39 67.90Q71.97 69.74 71.65 70.74L71.65 70.74L69.48 77.47L67.46 77.47L64.32 65.96L66.15 65.96Q67.26 70.30 67.84 72.56Q68.43 74.83 68.51 75.62L68.51 75.62L68.60 75.62Q68.71 75.02 68.97 74.07Q69.23 73.12 69.41 72.56L69.41 72.56L71.53 65.96L73.42 65.96L75.48 72.56Q76.07 74.37 76.28 75.60L76.28 75.60L76.36 75.60Q76.40 75.22 76.59 74.44Q76.77 73.65 78.78 65.96L78.78 65.96L80.58 65.96L77.40 77.47ZM87.53 77.68L87.53 77.68Q84.98 77.68 83.50 76.13Q82.02 74.57 82.02 71.81L82.02 71.81Q82.02 69.02 83.40 67.38Q84.77 65.75 87.08 65.75L87.08 65.75Q89.24 65.75 90.50 67.17Q91.76 68.59 91.76 70.93L91.76 70.93L91.76 72.03L83.83 72.03Q83.88 74.06 84.86 75.11Q85.83 76.16 87.59 76.16L87.59 76.16Q89.45 76.16 91.27 75.38L91.27 75.38L91.27 76.94Q90.35 77.34 89.52 77.51Q88.70 77.68 87.53 77.68ZM87.06 67.21L87.06 67.21Q85.67 67.21 84.85 68.11Q84.02 69.01 83.87 70.61L83.87 70.61L89.89 70.61Q89.89 68.96 89.16 68.08Q88.42 67.21 87.06 67.21ZM104.93 77.68L104.93 77.68Q102.43 77.68 101.06 76.14Q99.69 74.60 99.69 71.79L99.69 71.79Q99.69 68.90 101.08 67.32Q102.47 65.75 105.05 65.75L105.05 65.75Q105.88 65.75 106.71 65.92Q107.54 66.10 108.01 66.34L108.01 66.34L107.47 67.83Q106.90 67.59 106.21 67.44Q105.53 67.29 105.00 67.29L105.00 67.29Q101.49 67.29 101.49 71.77L101.49 71.77Q101.49 73.89 102.35 75.02Q103.21 76.16 104.89 76.16L104.89 76.16Q106.33 76.16 107.84 75.54L107.84 75.54L107.84 77.08Q106.69 77.68 104.93 77.68ZM120.51 71.70L120.51 71.70Q120.51 74.52 119.10 76.10Q117.68 77.68 115.18 77.68L115.18 77.68Q113.63 77.68 112.43 76.96Q111.24 76.23 110.58 74.88Q109.93 73.52 109.93 71.70L109.93 71.70Q109.93 68.89 111.34 67.32Q112.75 65.75 115.25 65.75L115.25 65.75Q117.67 65.75 119.09 67.35Q120.51 68.96 120.51 71.70ZM111.74 71.70L111.74 71.70Q111.74 73.91 112.62 75.07Q113.51 76.22 115.22 76.22L115.22 76.22Q116.93 76.22 117.82 75.07Q118.71 73.92 118.71 71.70L118.71 71.70Q118.71 69.51 117.82 68.37Q116.93 67.23 115.20 67.23L115.20 67.23Q113.48 67.23 112.61 68.35Q111.74 69.48 111.74 71.70ZM123.45 65.96L125.21 65.96L125.21 73.43Q125.21 74.83 125.85 75.53Q126.49 76.22 127.86 76.22L127.86 76.22Q129.67 76.22 130.50 75.23Q131.34 74.25 131.34 72.01L131.34 72.01L131.34 65.96L133.08 65.96L133.08 77.47L131.64 77.47L131.39 75.93L131.30 75.93Q130.76 76.78 129.81 77.23Q128.86 77.68 127.64 77.68L127.64 77.68Q125.54 77.68 124.49 76.68Q123.45 75.69 123.45 73.49L123.45 73.49L123.45 65.96ZM138.52 61.12L138.52 77.47L136.78 77.47L136.78 61.12L138.52 61.12ZM150.29 77.47L150.06 75.93L149.97 75.93Q148.76 77.68 146.35 77.68L146.35 77.68Q144.09 77.68 142.84 76.14Q141.58 74.59 141.58 71.75L141.58 71.75Q141.58 68.90 142.84 67.32Q144.10 65.75 146.35 65.75L146.35 65.75Q148.70 65.75 149.95 67.45L149.95 67.45L150.08 67.45L150.01 66.62L149.97 65.81L149.97 61.12L151.71 61.12L151.71 77.47L150.29 77.47ZM146.57 76.22L146.57 76.22Q148.36 76.22 149.16 75.25Q149.97 74.28 149.97 72.11L149.97 72.11L149.97 71.75Q149.97 69.30 149.15 68.25Q148.34 67.21 146.55 67.21L146.55 67.21Q145.02 67.21 144.20 68.40Q143.39 69.59 143.39 71.77L143.39 71.77Q143.39 73.97 144.20 75.10Q145.01 76.22 146.57 76.22ZM165.04 77.47L163.29 77.47L163.29 70.02Q163.29 68.61 162.65 67.92Q162.01 67.23 160.64 67.23L160.64 67.23Q158.84 67.23 158.00 68.20Q157.15 69.18 157.15 71.43L157.15 71.43L157.15 77.47L155.41 77.47L155.41 65.96L156.83 65.96L157.11 67.53L157.20 67.53Q157.73 66.68 158.70 66.21Q159.67 65.75 160.85 65.75L160.85 65.75Q162.93 65.75 163.98 66.75Q165.04 67.75 165.04 69.96L165.04 69.96L165.04 77.47ZM168.17 62.11L170.12 62.11L169.70 67.66L168.60 67.66L168.17 62.11ZM177.10 76.24L177.10 76.24Q177.56 76.24 177.99 76.17Q178.42 76.11 178.67 76.03L178.67 76.03L178.67 77.37Q178.39 77.50 177.84 77.59Q177.29 77.68 176.85 77.68L176.85 77.68Q173.51 77.68 173.51 74.16L173.51 74.16L173.51 67.31L171.86 67.31L171.86 66.47L173.51 65.75L174.24 63.29L175.25 63.29L175.25 65.96L178.59 65.96L178.59 67.31L175.25 67.31L175.25 74.09Q175.25 75.13 175.74 75.69Q176.24 76.24 177.10 76.24ZM191.82 65.75L191.82 65.75Q192.59 65.75 193.20 65.87L193.20 65.87L192.95 67.49Q192.24 67.33 191.69 67.33L191.69 67.33Q190.30 67.33 189.30 68.47Q188.31 69.60 188.31 71.29L188.31 71.29L188.31 77.47L186.57 77.47L186.57 65.96L188.01 65.96L188.21 68.09L188.29 68.09Q188.93 66.96 189.83 66.35Q190.74 65.75 191.82 65.75ZM200.22 77.68L200.22 77.68Q197.66 77.68 196.19 76.13Q194.71 74.57 194.71 71.81L194.71 71.81Q194.71 69.02 196.08 67.38Q197.45 65.75 199.76 65.75L199.76 65.75Q201.93 65.75 203.19 67.17Q204.45 68.59 204.45 70.93L204.45 70.93L204.45 72.03L196.52 72.03Q196.57 74.06 197.54 75.11Q198.51 76.16 200.28 76.16L200.28 76.16Q202.14 76.16 203.96 75.38L203.96 75.38L203.96 76.94Q203.03 77.34 202.21 77.51Q201.38 77.68 200.22 77.68ZM199.74 67.21L199.74 67.21Q198.36 67.21 197.53 68.11Q196.71 69.01 196.56 70.61L196.56 70.61L202.58 70.61Q202.58 68.96 201.84 68.08Q201.11 67.21 199.74 67.21ZM211.14 76.24L211.14 76.24Q211.61 76.24 212.04 76.17Q212.47 76.11 212.72 76.03L212.72 76.03L212.72 77.37Q212.44 77.50 211.88 77.59Q211.33 77.68 210.89 77.68L210.89 77.68Q207.55 77.68 207.55 74.16L207.55 74.16L207.55 67.31L205.90 67.31L205.90 66.47L207.55 65.75L208.29 63.29L209.29 63.29L209.29 65.96L212.64 65.96L212.64 67.31L209.29 67.31L209.29 74.09Q209.29 75.13 209.79 75.69Q210.28 76.24 211.14 76.24ZM220.28 65.75L220.28 65.75Q221.04 65.75 221.65 65.87L221.65 65.87L221.41 67.49Q220.70 67.33 220.15 67.33L220.15 67.33Q218.75 67.33 217.76 68.47Q216.77 69.60 216.77 71.29L216.77 71.29L216.77 77.47L215.02 77.47L215.02 65.96L216.46 65.96L216.66 68.09L216.74 68.09Q217.39 66.96 218.29 66.35Q219.19 65.75 220.28 65.75ZM225.55 65.96L225.55 77.47L223.81 77.47L223.81 65.96L225.55 65.96ZM223.66 62.83L223.66 62.83Q223.66 62.24 223.95 61.96Q224.25 61.68 224.69 61.68L224.69 61.68Q225.11 61.68 225.41 61.96Q225.72 62.25 225.72 62.83L225.72 62.83Q225.72 63.42 225.41 63.71Q225.11 64.00 224.69 64.00L224.69 64.00Q224.25 64.00 223.95 63.71Q223.66 63.42 223.66 62.83ZM234.11 77.68L234.11 77.68Q231.56 77.68 230.08 76.13Q228.61 74.57 228.61 71.81L228.61 71.81Q228.61 69.02 229.98 67.38Q231.35 65.75 233.66 65.75L233.66 65.75Q235.83 65.75 237.09 67.17Q238.35 68.59 238.35 70.93L238.35 70.93L238.35 72.03L230.42 72.03Q230.47 74.06 231.44 75.11Q232.41 76.16 234.18 76.16L234.18 76.16Q236.04 76.16 237.85 75.38L237.85 75.38L237.85 76.94Q236.93 77.34 236.11 77.51Q235.28 77.68 234.11 77.68ZM233.64 67.21L233.64 67.21Q232.25 67.21 231.43 68.11Q230.60 69.01 230.46 70.61L230.46 70.61L236.48 70.61Q236.48 68.96 235.74 68.08Q235.01 67.21 233.64 67.21ZM245.88 77.47L243.84 77.47L239.47 65.96L241.34 65.96L243.82 72.79Q244.66 75.18 244.81 75.90L244.81 75.90L244.90 75.90Q245.01 75.34 245.63 73.59Q246.24 71.84 248.38 65.96L248.38 65.96L250.25 65.96L245.88 77.47ZM256.97 77.68L256.97 77.68Q254.42 77.68 252.94 76.13Q251.46 74.57 251.46 71.81L251.46 71.81Q251.46 69.02 252.83 67.38Q254.21 65.75 256.52 65.75L256.52 65.75Q258.68 65.75 259.94 67.17Q261.20 68.59 261.20 70.93L261.20 70.93L261.20 72.03L253.27 72.03Q253.32 74.06 254.29 75.11Q255.27 76.16 257.03 76.16L257.03 76.16Q258.89 76.16 260.71 75.38L260.71 75.38L260.71 76.94Q259.78 77.34 258.96 77.51Q258.13 77.68 256.97 77.68ZM256.50 67.21L256.50 67.21Q255.11 67.21 254.28 68.11Q253.46 69.01 253.31 70.61L253.31 70.61L259.33 70.61Q259.33 68.96 258.60 68.08Q257.86 67.21 256.50 67.21ZM278.14 77.47L276.85 77.47L276.50 75.83L276.42 75.83Q275.56 76.92 274.70 77.30Q273.84 77.68 272.56 77.68L272.56 77.68Q270.85 77.68 269.88 76.80Q268.91 75.92 268.91 74.29L268.91 74.29Q268.91 70.80 274.49 70.63L274.49 70.63L276.44 70.57L276.44 69.85Q276.44 68.50 275.86 67.85Q275.27 67.21 273.99 67.21L273.99 67.21Q272.55 67.21 270.73 68.09L270.73 68.09L270.20 66.75Q271.05 66.29 272.06 66.03Q273.08 65.77 274.10 65.77L274.10 65.77Q276.16 65.77 277.15 66.68Q278.14 67.59 278.14 69.61L278.14 69.61L278.14 77.47ZM272.91 76.24L272.91 76.24Q274.54 76.24 275.47 75.35Q276.40 74.46 276.40 72.85L276.40 72.85L276.40 71.81L274.65 71.88Q272.57 71.96 271.65 72.53Q270.73 73.10 270.73 74.31L270.73 74.31Q270.73 75.25 271.31 75.75Q271.88 76.24 272.91 76.24ZM291.05 76.24L291.05 76.24Q291.51 76.24 291.94 76.17Q292.37 76.11 292.62 76.03L292.62 76.03L292.62 77.37Q292.34 77.50 291.79 77.59Q291.23 77.68 290.79 77.68L290.79 77.68Q287.45 77.68 287.45 74.16L287.45 74.16L287.45 67.31L285.80 67.31L285.80 66.47L287.45 65.75L288.19 63.29L289.20 63.29L289.20 65.96L292.54 65.96L292.54 67.31L289.20 67.31L289.20 74.09Q289.20 75.13 289.69 75.69Q290.18 76.24 291.05 76.24ZM300.18 65.75L300.18 65.75Q300.94 65.75 301.55 65.87L301.55 65.87L301.31 67.49Q300.60 67.33 300.05 67.33L300.05 67.33Q298.65 67.33 297.66 68.47Q296.67 69.60 296.67 71.29L296.67 71.29L296.67 77.47L294.92 77.47L294.92 65.96L296.36 65.96L296.56 68.09L296.65 68.09Q297.29 66.96 298.19 66.35Q299.09 65.75 300.18 65.75ZM312.08 77.47L310.79 77.47L310.44 75.83L310.36 75.83Q309.50 76.92 308.64 77.30Q307.78 77.68 306.50 77.68L306.50 77.68Q304.79 77.68 303.82 76.80Q302.85 75.92 302.85 74.29L302.85 74.29Q302.85 70.80 308.43 70.63L308.43 70.63L310.38 70.57L310.38 69.85Q310.38 68.50 309.80 67.85Q309.21 67.21 307.93 67.21L307.93 67.21Q306.49 67.21 304.67 68.09L304.67 68.09L304.14 66.75Q304.99 66.29 306.00 66.03Q307.02 65.77 308.04 65.77L308.04 65.77Q310.10 65.77 311.09 66.68Q312.08 67.59 312.08 69.61L312.08 69.61L312.08 77.47ZM306.85 76.24L306.85 76.24Q308.48 76.24 309.41 75.35Q310.34 74.46 310.34 72.85L310.34 72.85L310.34 71.81L308.59 71.88Q306.51 71.96 305.59 72.53Q304.67 73.10 304.67 74.31L304.67 74.31Q304.67 75.25 305.25 75.75Q305.82 76.24 306.85 76.24ZM317.42 65.96L317.42 77.47L315.68 77.47L315.68 65.96L317.42 65.96ZM315.53 62.83L315.53 62.83Q315.53 62.24 315.82 61.96Q316.12 61.68 316.56 61.68L316.56 61.68Q316.98 61.68 317.28 61.96Q317.59 62.25 317.59 62.83L317.59 62.83Q317.59 63.42 317.28 63.71Q316.98 64.00 316.56 64.00L316.56 64.00Q316.12 64.00 315.82 63.71Q315.53 63.42 315.53 62.83ZM322.86 61.12L322.86 77.47L321.12 77.47L321.12 61.12L322.86 61.12ZM331.43 77.68L331.43 77.68Q328.87 77.68 327.40 76.13Q325.92 74.57 325.92 71.81L325.92 71.81Q325.92 69.02 327.29 67.38Q328.66 65.75 330.98 65.75L330.98 65.75Q333.14 65.75 334.40 67.17Q335.66 68.59 335.66 70.93L335.66 70.93L335.66 72.03L327.73 72.03Q327.78 74.06 328.75 75.11Q329.72 76.16 331.49 76.16L331.49 76.16Q333.35 76.16 335.17 75.38L335.17 75.38L335.17 76.94Q334.24 77.34 333.42 77.51Q332.59 77.68 331.43 77.68ZM330.95 67.21L330.95 67.21Q329.57 67.21 328.74 68.11Q327.92 69.01 327.77 70.61L327.77 70.61L333.79 70.61Q333.79 68.96 333.06 68.08Q332.32 67.21 330.95 67.21ZM343.89 65.75L343.89 65.75Q344.66 65.75 345.27 65.87L345.27 65.87L345.02 67.49Q344.31 67.33 343.76 67.33L343.76 67.33Q342.37 67.33 341.37 68.47Q340.38 69.60 340.38 71.29L340.38 71.29L340.38 77.47L338.64 77.47L338.64 65.96L340.07 65.96L340.27 68.09L340.36 68.09Q341.00 66.96 341.90 66.35Q342.81 65.75 343.89 65.75ZM358.20 65.96L358.20 67.31L355.27 67.31L355.27 77.47L353.52 77.47L353.52 67.31L351.47 67.31L351.47 66.52L353.52 65.89L353.52 65.25Q353.52 61.01 357.23 61.01L357.23 61.01Q358.15 61.01 359.38 61.37L359.38 61.37L358.93 62.77Q357.92 62.45 357.20 62.45L357.20 62.45Q356.21 62.45 355.74 63.10Q355.27 63.76 355.27 65.21L355.27 65.21L355.27 65.96L358.20 65.96ZM370.24 71.70L370.24 71.70Q370.24 74.52 368.82 76.10Q367.41 77.68 364.90 77.68L364.90 77.68Q363.36 77.68 362.16 76.96Q360.96 76.23 360.31 74.88Q359.66 73.52 359.66 71.70L359.66 71.70Q359.66 68.89 361.07 67.32Q362.48 65.75 364.98 65.75L364.98 65.75Q367.40 65.75 368.82 67.35Q370.24 68.96 370.24 71.70ZM361.47 71.70L361.47 71.70Q361.47 73.91 362.35 75.07Q363.23 76.22 364.95 76.22L364.95 76.22Q366.66 76.22 367.55 75.07Q368.44 73.92 368.44 71.70L368.44 71.70Q368.44 69.51 367.55 68.37Q366.66 67.23 364.93 67.23L364.93 67.23Q363.21 67.23 362.34 68.35Q361.47 69.48 361.47 71.70ZM378.55 65.75L378.55 65.75Q379.32 65.75 379.93 65.87L379.93 65.87L379.69 67.49Q378.97 67.33 378.43 67.33L378.43 67.33Q377.03 67.33 376.04 68.47Q375.04 69.60 375.04 71.29L375.04 71.29L375.04 77.47L373.30 77.47L373.30 65.96L374.74 65.96L374.94 68.09L375.02 68.09Q375.66 66.96 376.57 66.35Q377.47 65.75 378.55 65.75ZM391.39 76.24L391.39 76.24Q391.86 76.24 392.29 76.17Q392.72 76.11 392.97 76.03L392.97 76.03L392.97 77.37Q392.69 77.50 392.14 77.59Q391.58 77.68 391.14 77.68L391.14 77.68Q387.80 77.68 387.80 74.16L387.80 74.16L387.80 67.31L386.15 67.31L386.15 66.47L387.80 65.75L388.54 63.29L389.55 63.29L389.55 65.96L392.89 65.96L392.89 67.31L389.55 67.31L389.55 74.09Q389.55 75.13 390.04 75.69Q390.53 76.24 391.39 76.24ZM404.90 77.47L403.15 77.47L403.15 70.02Q403.15 68.61 402.51 67.92Q401.87 67.23 400.51 67.23L400.51 67.23Q398.69 67.23 397.85 68.21Q397.02 69.20 397.02 71.45L397.02 71.45L397.02 77.47L395.27 77.47L395.27 61.12L397.02 61.12L397.02 66.07Q397.02 66.96 396.93 67.55L396.93 67.55L397.04 67.55Q397.55 66.72 398.50 66.24Q399.45 65.77 400.67 65.77L400.67 65.77Q402.79 65.77 403.84 66.77Q404.90 67.77 404.90 69.96L404.90 69.96L404.90 77.47ZM410.22 65.96L410.22 77.47L408.48 77.47L408.48 65.96L410.22 65.96ZM408.33 62.83L408.33 62.83Q408.33 62.24 408.63 61.96Q408.92 61.68 409.36 61.68L409.36 61.68Q409.78 61.68 410.09 61.96Q410.39 62.25 410.39 62.83L410.39 62.83Q410.39 63.42 410.09 63.71Q409.78 64.00 409.36 64.00L409.36 64.00Q408.92 64.00 408.63 63.71Q408.33 63.42 408.33 62.83ZM421.35 74.33L421.35 74.33Q421.35 75.94 420.15 76.81Q418.96 77.68 416.79 77.68L416.79 77.68Q414.50 77.68 413.22 76.96L413.22 76.96L413.22 75.34Q414.05 75.76 415.00 76.00Q415.95 76.24 416.83 76.24L416.83 76.24Q418.20 76.24 418.94 75.81Q419.67 75.37 419.67 74.48L419.67 74.48Q419.67 73.80 419.09 73.33Q418.51 72.85 416.81 72.20L416.81 72.20Q415.21 71.60 414.53 71.15Q413.85 70.70 413.52 70.14Q413.19 69.57 413.19 68.78L413.19 68.78Q413.19 67.37 414.33 66.56Q415.48 65.75 417.48 65.75L417.48 65.75Q419.34 65.75 421.11 66.50L421.11 66.50L420.49 67.92Q418.76 67.21 417.35 67.21L417.35 67.21Q416.11 67.21 415.48 67.59Q414.85 67.98 414.85 68.67L414.85 68.67Q414.85 69.13 415.08 69.45Q415.32 69.78 415.85 70.07Q416.37 70.37 417.86 70.93L417.86 70.93Q419.91 71.67 420.63 72.43Q421.35 73.18 421.35 74.33ZM437.21 74.33L437.21 74.33Q437.21 75.94 436.01 76.81Q434.81 77.68 432.65 77.68L432.65 77.68Q430.36 77.68 429.08 76.96L429.08 76.96L429.08 75.34Q429.91 75.76 430.86 76.00Q431.81 76.24 432.69 76.24L432.69 76.24Q434.06 76.24 434.79 75.81Q435.53 75.37 435.53 74.48L435.53 74.48Q435.53 73.80 434.94 73.33Q434.36 72.85 432.67 72.20L432.67 72.20Q431.06 71.60 430.38 71.15Q429.71 70.70 429.38 70.14Q429.04 69.57 429.04 68.78L429.04 68.78Q429.04 67.37 430.19 66.56Q431.34 65.75 433.33 65.75L433.33 65.75Q435.19 65.75 436.97 66.50L436.97 66.50L436.35 67.92Q434.61 67.21 433.21 67.21L433.21 67.21Q431.97 67.21 431.34 67.59Q430.70 67.98 430.70 68.67L430.70 68.67Q430.70 69.13 430.94 69.45Q431.18 69.78 431.70 70.07Q432.23 70.37 433.72 70.93L433.72 70.93Q435.77 71.67 436.49 72.43Q437.21 73.18 437.21 74.33ZM449.67 77.47L447.93 77.47L447.93 70.02Q447.93 68.61 447.29 67.92Q446.65 67.23 445.28 67.23L445.28 67.23Q443.46 67.23 442.63 68.21Q441.79 69.20 441.79 71.45L441.79 71.45L441.79 77.47L440.05 77.47L440.05 61.12L441.79 61.12L441.79 66.07Q441.79 66.96 441.71 67.55L441.71 67.55L441.81 67.55Q442.33 66.72 443.28 66.24Q444.23 65.77 445.45 65.77L445.45 65.77Q447.56 65.77 448.62 66.77Q449.67 67.77 449.67 69.96L449.67 69.96L449.67 77.47ZM463.19 71.70L463.19 71.70Q463.19 74.52 461.78 76.10Q460.36 77.68 457.86 77.68L457.86 77.68Q456.31 77.68 455.11 76.96Q453.92 76.23 453.27 74.88Q452.61 73.52 452.61 71.70L452.61 71.70Q452.61 68.89 454.02 67.32Q455.43 65.75 457.93 65.75L457.93 65.75Q460.35 65.75 461.77 67.35Q463.19 68.96 463.19 71.70ZM454.42 71.70L454.42 71.70Q454.42 73.91 455.30 75.07Q456.19 76.22 457.90 76.22L457.90 76.22Q459.61 76.22 460.50 75.07Q461.39 73.92 461.39 71.70L461.39 71.70Q461.39 69.51 460.50 68.37Q459.61 67.23 457.88 67.23L457.88 67.23Q456.17 67.23 455.29 68.35Q454.42 69.48 454.42 71.70ZM477.73 77.47L475.66 77.47L473.55 70.72Q473.35 70.10 472.80 67.90L472.80 67.90L472.71 67.90Q472.29 69.74 471.98 70.74L471.98 70.74L469.80 77.47L467.79 77.47L464.64 65.96L466.47 65.96Q467.59 70.30 468.17 72.56Q468.75 74.83 468.84 75.62L468.84 75.62L468.92 75.62Q469.04 75.02 469.29 74.07Q469.55 73.12 469.74 72.56L469.74 72.56L471.85 65.96L473.74 65.96L475.80 72.56Q476.39 74.37 476.60 75.60L476.60 75.60L476.69 75.60Q476.73 75.22 476.91 74.44Q477.10 73.65 479.10 65.96L479.10 65.96L480.91 65.96L477.73 77.47Z"></path>
            </g>
        </g>
    </g>
    
    <!-- ITEM 2 -->
    <g>
        <defs>
            <clipPath id="clip-path-id-viewbox-item-2">
                <rect x="0.0" y="0.0" width="217.989" height="217.989"/>
            </clipPath>
        </defs>
        <g transform="translate(243.0 102.0) rotate(0.0 55.5 55.5) scale(0.5092000055048649 0.5092000055048649)">
            <g clip-path="url(#clip-path-id-viewbox-item-2)" transform="translate(-0.0 -0.0)">
                
<g>
	<circle fill="#E94A47" cx="108.994" cy="108.995" r="104.995"></circle>
	<path fill="#A1C3FC" d="M108.994,217.989C48.895,217.989,0,169.095,0,108.995C0,48.895,48.895,0,108.994,0   c60.101,0,108.995,48.895,108.995,108.995C217.989,169.095,169.095,217.989,108.994,217.989z M108.994,8   C53.306,8,8,53.306,8,108.995c0,55.688,45.306,100.994,100.994,100.994s100.995-45.306,100.995-100.994   C209.989,53.306,164.683,8,108.994,8z"></path>
</g>
<path fill="#A1C3FC" d="M64.163,78.655h-7.499c-1.657,0-3,1.343-3,3v63.943c0,1.657,1.343,3,3,3h7.499c1.657,0,3-1.343,3-3V81.655  C67.163,79.998,65.819,78.655,64.163,78.655z"></path>
<path fill="#A1C3FC" d="M119.35,63.109H84.757c-1.657,0-3,1.343-3,3v79.489c0,1.657,1.343,3,3,3h34.594c1.657,0,3-1.343,3-3V66.109  C122.35,64.452,121.007,63.109,119.35,63.109z"></path>
<path fill="#A1C3FC" d="M61.994,61.657l-43.097,53.177c-1.541,1.901-0.188,4.74,2.26,4.74h43.097c1.606,0,2.909-1.302,2.909-2.909  V63.489C67.163,60.748,63.72,59.528,61.994,61.657z"></path>
<path fill="#A1C3FC" d="M173.213,78.655h-7.499c-1.657,0-3,1.343-3,3v63.943c0,1.657,1.343,3,3,3h7.499c1.657,0,3-1.343,3-3V81.655  C176.213,79.998,174.87,78.655,173.213,78.655z"></path>
<path fill="#A1C3FC" d="M171.044,61.657l-43.097,53.177c-1.541,1.901-0.188,4.74,2.26,4.74h43.097c1.606,0,2.909-1.302,2.909-2.909  V63.489C176.213,60.748,172.77,59.528,171.044,61.657z"></path>
<path fill="#E94A47" d="M106.469,75.101h-8.832c-1.657,0-3,1.343-3,3v55.504c0,1.657,1.343,3,3,3h8.832c1.657,0,3-1.343,3-3V78.101  C109.469,76.445,108.126,75.101,106.469,75.101z"></path>
<path fill="#E94A47" d="M50.469,57.435h-8.832c-1.657,0-3,1.343-3,3v43.504c0,1.657,1.343,3,3,3h8.832c1.657,0,3-1.343,3-3V60.435  C53.469,58.778,52.126,57.435,50.469,57.435z"></path>
<path fill="#E94A47" d="M159.469,57.435h-8.832c-1.657,0-3,1.343-3,3v43.504c0,1.657,1.343,3,3,3h8.832c1.657,0,3-1.343,3-3V60.435  C162.469,58.778,161.126,57.435,159.469,57.435z"></path>

            </g>
        </g>
    </g>
    
</svg>